<svg width="280" height="262" viewBox="0 0 280 262" fill="none" xmlns="http://www.w3.org/2000/svg">
<path d="M88.1431 184.48V199H85.3931V191.432L85.5471 187.186H85.5031L81.4771 199H78.9911L74.9871 187.186H74.9431L75.0971 191.432V199H72.3471V184.48H76.7471L79.3651 192.4L80.2891 195.678H80.3331L81.2791 192.422L83.8751 184.48H88.1431ZM97.7954 191.982C97.7954 191.351 97.6121 190.86 97.2454 190.508C96.8934 190.156 96.4241 189.98 95.8374 189.98C95.2947 189.98 94.8181 190.119 94.4074 190.398C93.9967 190.677 93.6961 191.139 93.5054 191.784L90.9314 190.992C91.1807 190.024 91.7234 189.247 92.5594 188.66C93.4101 188.073 94.5467 187.78 95.9694 187.78C96.9374 187.78 97.7807 187.934 98.4994 188.242C99.2181 188.535 99.7754 188.983 100.171 189.584C100.582 190.185 100.787 190.941 100.787 191.85V196.316C100.787 196.873 101.051 197.152 101.579 197.152C101.829 197.152 102.063 197.115 102.283 197.042L102.107 198.912C101.726 199.103 101.249 199.198 100.677 199.198C100.164 199.198 99.7021 199.11 99.2914 198.934C98.8807 198.758 98.5581 198.494 98.3234 198.142C98.0887 197.775 97.9714 197.321 97.9714 196.778V196.69L98.4994 196.602C98.4114 197.159 98.1694 197.636 97.7734 198.032C97.3774 198.413 96.8934 198.707 96.3214 198.912C95.7641 199.117 95.1847 199.22 94.5834 199.22C93.8354 199.22 93.1901 199.11 92.6474 198.89C92.1047 198.655 91.6867 198.318 91.3934 197.878C91.1001 197.438 90.9534 196.895 90.9534 196.25C90.9534 195.429 91.2174 194.761 91.7454 194.248C92.2734 193.72 93.0287 193.361 94.0114 193.17L98.1474 192.334L98.1254 194.204L95.4854 194.732C94.9867 194.835 94.6054 194.974 94.3414 195.15C94.0921 195.311 93.9674 195.583 93.9674 195.964C93.9674 196.331 94.0994 196.609 94.3634 196.8C94.6421 196.991 94.9721 197.086 95.3534 197.086C95.6614 197.086 95.9621 197.049 96.2554 196.976C96.5487 196.903 96.8127 196.785 97.0474 196.624C97.2821 196.463 97.4654 196.243 97.5974 195.964C97.7294 195.685 97.7954 195.348 97.7954 194.952V191.982ZM105.676 186.416C105.046 186.416 104.576 186.284 104.268 186.02C103.96 185.741 103.806 185.338 103.806 184.81C103.806 184.267 103.96 183.864 104.268 183.6C104.576 183.321 105.046 183.182 105.676 183.182C106.307 183.182 106.776 183.321 107.084 183.6C107.392 183.864 107.546 184.267 107.546 184.81C107.546 185.338 107.392 185.741 107.084 186.02C106.776 186.284 106.307 186.416 105.676 186.416ZM107.172 188V199H104.158V188H107.172ZM110.367 199V188H113.073L113.249 191.3L112.875 190.948C113.051 190.229 113.33 189.635 113.711 189.166C114.093 188.697 114.555 188.352 115.097 188.132C115.655 187.897 116.263 187.78 116.923 187.78C117.686 187.78 118.361 187.927 118.947 188.22C119.549 188.513 120.018 188.961 120.355 189.562C120.707 190.149 120.883 190.889 120.883 191.784V199H117.869V192.642C117.869 191.703 117.686 191.058 117.319 190.706C116.953 190.339 116.476 190.156 115.889 190.156C115.479 190.156 115.075 190.259 114.679 190.464C114.298 190.655 113.983 190.97 113.733 191.41C113.499 191.85 113.381 192.437 113.381 193.17V199H110.367ZM127.796 184.634V195.414C127.796 195.942 127.928 196.331 128.192 196.58C128.471 196.815 128.845 196.932 129.314 196.932C129.681 196.932 130.004 196.881 130.282 196.778C130.561 196.661 130.81 196.507 131.03 196.316L131.514 198.318C131.162 198.597 130.722 198.817 130.194 198.978C129.666 199.139 129.109 199.22 128.522 199.22C127.789 199.22 127.136 199.11 126.564 198.89C126.007 198.67 125.567 198.318 125.244 197.834C124.936 197.35 124.782 196.705 124.782 195.898V185.47L127.796 184.634ZM131.316 188V190.244H122.758V188H131.316ZM138.459 199.22C137.301 199.22 136.289 198.993 135.423 198.538C134.573 198.083 133.913 197.431 133.443 196.58C132.974 195.729 132.739 194.703 132.739 193.5C132.739 192.297 132.974 191.271 133.443 190.42C133.913 189.569 134.565 188.917 135.401 188.462C136.252 188.007 137.22 187.78 138.305 187.78C139.42 187.78 140.366 188.007 141.143 188.462C141.921 188.902 142.515 189.511 142.925 190.288C143.336 191.051 143.541 191.923 143.541 192.906C143.541 193.199 143.534 193.478 143.519 193.742C143.505 194.006 143.483 194.241 143.453 194.446H134.675V192.356H142.133L140.681 192.884C140.681 191.96 140.469 191.249 140.043 190.75C139.633 190.251 139.046 190.002 138.283 190.002C137.726 190.002 137.242 190.134 136.831 190.398C136.435 190.662 136.135 191.058 135.929 191.586C135.724 192.099 135.621 192.752 135.621 193.544C135.621 194.321 135.731 194.967 135.951 195.48C136.186 195.979 136.509 196.353 136.919 196.602C137.345 196.851 137.851 196.976 138.437 196.976C139.083 196.976 139.603 196.851 139.999 196.602C140.395 196.353 140.703 196.008 140.923 195.568L143.321 196.492C143.087 197.064 142.727 197.555 142.243 197.966C141.774 198.377 141.209 198.692 140.549 198.912C139.904 199.117 139.207 199.22 138.459 199.22ZM146.096 199V188H148.802L148.978 191.3L148.604 190.948C148.78 190.229 149.058 189.635 149.44 189.166C149.821 188.697 150.283 188.352 150.826 188.132C151.383 187.897 151.992 187.78 152.652 187.78C153.414 187.78 154.089 187.927 154.676 188.22C155.277 188.513 155.746 188.961 156.084 189.562C156.436 190.149 156.612 190.889 156.612 191.784V199H153.598V192.642C153.598 191.703 153.414 191.058 153.048 190.706C152.681 190.339 152.204 190.156 151.618 190.156C151.207 190.156 150.804 190.259 150.408 190.464C150.026 190.655 149.711 190.97 149.462 191.41C149.227 191.85 149.11 192.437 149.11 193.17V199H146.096ZM165.987 191.982C165.987 191.351 165.803 190.86 165.437 190.508C165.085 190.156 164.615 189.98 164.029 189.98C163.486 189.98 163.009 190.119 162.599 190.398C162.188 190.677 161.887 191.139 161.697 191.784L159.123 190.992C159.372 190.024 159.915 189.247 160.751 188.66C161.601 188.073 162.738 187.78 164.161 187.78C165.129 187.78 165.972 187.934 166.691 188.242C167.409 188.535 167.967 188.983 168.363 189.584C168.773 190.185 168.979 190.941 168.979 191.85V196.316C168.979 196.873 169.243 197.152 169.771 197.152C170.02 197.152 170.255 197.115 170.475 197.042L170.299 198.912C169.917 199.103 169.441 199.198 168.869 199.198C168.355 199.198 167.893 199.11 167.483 198.934C167.072 198.758 166.749 198.494 166.515 198.142C166.28 197.775 166.163 197.321 166.163 196.778V196.69L166.691 196.602C166.603 197.159 166.361 197.636 165.965 198.032C165.569 198.413 165.085 198.707 164.513 198.912C163.955 199.117 163.376 199.22 162.775 199.22C162.027 199.22 161.381 199.11 160.839 198.89C160.296 198.655 159.878 198.318 159.585 197.878C159.291 197.438 159.145 196.895 159.145 196.25C159.145 195.429 159.409 194.761 159.937 194.248C160.465 193.72 161.22 193.361 162.203 193.17L166.339 192.334L166.317 194.204L163.677 194.732C163.178 194.835 162.797 194.974 162.533 195.15C162.283 195.311 162.159 195.583 162.159 195.964C162.159 196.331 162.291 196.609 162.555 196.8C162.833 196.991 163.163 197.086 163.545 197.086C163.853 197.086 164.153 197.049 164.447 196.976C164.74 196.903 165.004 196.785 165.239 196.624C165.473 196.463 165.657 196.243 165.789 195.964C165.921 195.685 165.987 195.348 165.987 194.952V191.982ZM172.35 199V188H175.056L175.232 191.3L174.858 190.948C175.034 190.229 175.312 189.635 175.694 189.166C176.075 188.697 176.537 188.352 177.08 188.132C177.637 187.897 178.246 187.78 178.906 187.78C179.668 187.78 180.343 187.927 180.93 188.22C181.531 188.513 182 188.961 182.338 189.562C182.69 190.149 182.866 190.889 182.866 191.784V199H179.852V192.642C179.852 191.703 179.668 191.058 179.302 190.706C178.935 190.339 178.458 190.156 177.872 190.156C177.461 190.156 177.058 190.259 176.662 190.464C176.28 190.655 175.965 190.97 175.716 191.41C175.481 191.85 175.364 192.437 175.364 193.17V199H172.35ZM190.965 187.78C191.947 187.78 192.776 187.927 193.451 188.22C194.14 188.499 194.69 188.887 195.101 189.386C195.526 189.87 195.827 190.413 196.003 191.014L193.187 192.026C193.04 191.366 192.791 190.867 192.439 190.53C192.087 190.193 191.61 190.024 191.009 190.024C190.451 190.024 189.975 190.156 189.579 190.42C189.183 190.669 188.882 191.058 188.677 191.586C188.471 192.099 188.369 192.745 188.369 193.522C188.369 194.299 188.471 194.945 188.677 195.458C188.897 195.971 189.205 196.353 189.601 196.602C190.011 196.851 190.488 196.976 191.031 196.976C191.471 196.976 191.845 196.903 192.153 196.756C192.461 196.595 192.71 196.367 192.901 196.074C193.106 195.781 193.245 195.429 193.319 195.018L196.047 195.898C195.885 196.558 195.585 197.137 195.145 197.636C194.705 198.135 194.14 198.523 193.451 198.802C192.761 199.081 191.962 199.22 191.053 199.22C189.923 199.22 188.926 198.993 188.061 198.538C187.195 198.083 186.528 197.431 186.059 196.58C185.589 195.729 185.355 194.703 185.355 193.5C185.355 192.297 185.589 191.271 186.059 190.42C186.528 189.569 187.188 188.917 188.039 188.462C188.889 188.007 189.865 187.78 190.965 187.78ZM203.493 199.22C202.334 199.22 201.322 198.993 200.457 198.538C199.606 198.083 198.946 197.431 198.477 196.58C198.007 195.729 197.773 194.703 197.773 193.5C197.773 192.297 198.007 191.271 198.477 190.42C198.946 189.569 199.599 188.917 200.435 188.462C201.285 188.007 202.253 187.78 203.339 187.78C204.453 187.78 205.399 188.007 206.177 188.462C206.954 188.902 207.548 189.511 207.959 190.288C208.369 191.051 208.575 191.923 208.575 192.906C208.575 193.199 208.567 193.478 208.553 193.742C208.538 194.006 208.516 194.241 208.487 194.446H199.709V192.356H207.167L205.715 192.884C205.715 191.96 205.502 191.249 205.077 190.75C204.666 190.251 204.079 190.002 203.317 190.002C202.759 190.002 202.275 190.134 201.865 190.398C201.469 190.662 201.168 191.058 200.963 191.586C200.757 192.099 200.655 192.752 200.655 193.544C200.655 194.321 200.765 194.967 200.985 195.48C201.219 195.979 201.542 196.353 201.953 196.602C202.378 196.851 202.884 196.976 203.471 196.976C204.116 196.976 204.637 196.851 205.033 196.602C205.429 196.353 205.737 196.008 205.957 195.568L208.355 196.492C208.12 197.064 207.761 197.555 207.277 197.966C206.807 198.377 206.243 198.692 205.583 198.912C204.937 199.117 204.241 199.22 203.493 199.22Z" fill="#004750"/>
<g filter="url(#filter0_d_3_752)">
<rect x="90" y="86" width="100" height="81.6794" rx="10" fill="white"/>
</g>
<path d="M120.399 100.51C120.235 100.525 120.079 100.586 119.948 100.687C119.818 100.788 119.72 100.923 119.664 101.078C119.608 101.233 119.598 101.401 119.634 101.561C119.67 101.722 119.751 101.869 119.868 101.985L125.673 107.783V109.667L123.585 111.755H121.708L115.903 105.95C115.782 105.829 115.627 105.748 115.46 105.715C115.292 105.682 115.118 105.699 114.961 105.765C114.803 105.83 114.668 105.941 114.573 106.083C114.478 106.225 114.428 106.392 114.428 106.563V113.485C114.43 113.713 114.521 113.931 114.683 114.092L119.006 118.42C119.087 118.5 119.183 118.564 119.288 118.606C119.393 118.649 119.506 118.671 119.62 118.671H126.178L148.163 140.656V147.22C148.163 147.334 148.186 147.447 148.23 147.553C148.274 147.658 148.338 147.753 148.42 147.834L152.741 152.157C152.822 152.238 152.917 152.302 153.023 152.346C153.128 152.39 153.241 152.412 153.355 152.412H160.277C160.448 152.412 160.616 152.361 160.759 152.265C160.901 152.17 161.012 152.034 161.077 151.875C161.142 151.716 161.158 151.541 161.124 151.373C161.089 151.205 161.006 151.051 160.883 150.93L155.086 145.132V143.255L157.173 141.16H159.052L164.855 146.965C164.977 147.086 165.131 147.167 165.298 147.2C165.466 147.233 165.64 147.216 165.797 147.15C165.955 147.085 166.09 146.974 166.185 146.832C166.28 146.69 166.33 146.523 166.33 146.352V139.437C166.33 139.323 166.308 139.21 166.264 139.104C166.22 138.999 166.156 138.904 166.075 138.823L161.752 134.493C161.588 134.332 161.368 134.243 161.138 134.245H154.581L132.595 112.259V105.695C132.594 105.467 132.502 105.249 132.34 105.088L128.017 100.758C127.853 100.597 127.633 100.508 127.403 100.509H120.481C120.454 100.508 120.426 100.508 120.399 100.509L120.399 100.51Z" fill="#33658A"/>
<path d="M162.774 100.509C162.672 100.522 162.572 100.551 162.48 100.598L153.834 104.922C153.541 105.068 153.356 105.367 153.355 105.694V108.798L131.982 130.17L136.663 134.858L158.036 113.485H161.139C161.467 113.484 161.766 113.299 161.912 113.006L166.241 104.353C166.406 104.02 166.339 103.619 166.075 103.357L163.483 100.758C163.297 100.572 163.036 100.48 162.774 100.509V100.509Z" fill="#DBE9EE"/>
<path d="M130.853 128.185C130.627 128.188 130.412 128.28 130.253 128.44L116.268 142.425C113.922 144.77 113.785 148.518 116.051 150.783C118.317 153.049 122.064 152.912 124.41 150.566L138.394 136.582C138.556 136.42 138.646 136.2 138.646 135.972C138.646 135.743 138.556 135.524 138.394 135.362L131.479 128.44C131.397 128.358 131.299 128.293 131.192 128.249C131.084 128.205 130.969 128.183 130.853 128.185Z" fill="#33B9EF"/>
<path d="M127.658 131.036L135.798 139.176L138.395 136.581C138.556 136.419 138.647 136.2 138.647 135.971C138.647 135.743 138.556 135.524 138.395 135.362L131.48 128.439C131.398 128.357 131.3 128.292 131.193 128.248C131.085 128.204 130.969 128.183 130.853 128.184C130.628 128.188 130.412 128.28 130.253 128.439L127.658 131.036Z" fill="#2FA9DA"/>
<defs>
<filter id="filter0_d_3_752" x="0" y="0" width="280" height="261.679" filterUnits="userSpaceOnUse" color-interpolation-filters="sRGB">
<feFlood flood-opacity="0" result="BackgroundImageFix"/>
<feColorMatrix in="SourceAlpha" type="matrix" values="0 0 0 0 0 0 0 0 0 0 0 0 0 0 0 0 0 0 127 0" result="hardAlpha"/>
<feOffset dy="4"/>
<feGaussianBlur stdDeviation="45"/>
<feComposite in2="hardAlpha" operator="out"/>
<feColorMatrix type="matrix" values="0 0 0 0 0.77625 0 0 0 0 0.884313 0 0 0 0 0.9 0 0 0 0.8 0"/>
<feBlend mode="normal" in2="BackgroundImageFix" result="effect1_dropShadow_3_752"/>
<feBlend mode="normal" in="SourceGraphic" in2="effect1_dropShadow_3_752" result="shape"/>
</filter>
</defs>
</svg>
